<?xml version="1.0"?>
<svg version="1.1" xmlns="http://www.w3.org/2000/svg" width="400" height="50" style=""><path fill="#0ea113" d="M16.19140625,41.2890625q0-0.68359375,0.46875-0.869140625t1.015625-0.185546875q0.95703125,0,1.62109375,0.859375t1.259765625,1.884765625t1.181640625,1.884765625t1.38671875,0.859375q0.60546875,0,1.103515625-0.302734375t0.859375-0.76171875t0.556640625-1.03515625t0.1953125-1.142578125q0-1.484375-0.595703125-3.06640625t-1.5234375-3.26171875t-1.962890625-3.4375t-1.953125-3.57421875t-1.5234375-3.701171875t-0.60546875-3.798828125q0-2.87109375,1.71875-4.453125t4.53125-1.58203125q0.95703125,0,1.93359375,0.2734375t1.796875,0.8203125t1.337890625,1.34765625t0.517578125,1.875q0,0.3515625-0.517578125,0.458984375t-0.751953125,0.107421875q-0.3515625,0-0.76171875-0.087890625t-0.52734375-0.478515625t-0.33203125-0.8984375t-0.537109375-0.947265625t-0.76171875-0.76171875t-0.966796875-0.322265625q-0.87890625,0-1.494140625,0.361328125t-0.99609375,0.966796875t-0.56640625,1.357421875t-0.185546875,1.552734375q0,1.875,0.64453125,3.779296875t1.6015625,3.7890625t2.080078125,3.720703125t2.080078125,3.57421875t1.6015625,3.3984375t0.64453125,3.14453125q0,1.328125-0.625,2.24609375t-1.58203125,1.494140625t-2.119140625,0.83984375t-2.275390625,0.263671875q-1.19140625,0-2.44140625-0.478515625t-2.24609375-1.318359375t-1.640625-1.962890625t-0.64453125-2.431640625z M33.7630859375,39.84375l0-1.8359375q0-0.99609375,0.048828125-2.822265625t0.126953125-4.00390625t0.21484375-4.541015625t0.3125-4.462890625t0.419921875-3.759765625t0.556640625-2.4609375q0.1953125-0.44921875,0.64453125-0.56640625t0.87890625-0.1171875q0.68359375,0,1.201171875,0.302734375t0.517578125,1.103515625l-0.3515625,0.390625q-0.68359375,4.51171875-0.87890625,9.0625t-0.2734375,9.1015625q0.48828125-0.76171875,1.103515625-1.494140625t1.3671875-1.298828125t1.62109375-0.908203125t1.904296875-0.341796875q1.328125,0,2.197265625,0.80078125t1.435546875,2.080078125t0.83984375,2.861328125t0.419921875,3.1640625t0.205078125,2.998046875t0.17578125,2.353515625q-0.37109375,0.5078125-1.09375,0.5078125l-0.05859375,0q-0.3125,0-0.68359375-0.078125t-0.48828125-0.390625l0.0390625,0.0390625q-0.2734375-0.60546875-0.37109375-1.748046875t-0.15625-2.51953125t-0.205078125-2.822265625t-0.439453125-2.6171875t-0.859375-1.93359375t-1.5234375-0.80078125l-0.1171875,0q-1.15234375,0-1.93359375,0.703125q-0.8203125,0.7421875-1.328125,1.953125t-0.78125,2.6953125t-0.419921875,2.861328125t-0.224609375,2.5t-0.1953125,1.650390625q-0.1171875,0.44921875-0.693359375,0.595703125t-0.986328125,0.146484375q-0.95703125,0-1.5625-0.546875q-0.44921875-1.07421875-0.52734375-2.67578125t-0.078125-3.125z M52.448046875,37.71484375q0-1.328125,0.361328125-2.55859375t1.083984375-2.197265625t1.806640625-1.54296875t2.509765625-0.576171875q0.87890625,0,1.943359375,0.263671875t2.001953125,0.78125t1.5625,1.318359375t0.625,1.8359375q0,0.48828125-0.166015625,0.7421875t-0.673828125,0.25390625l-0.21484375-0.0390625q0.56640625,1.5234375,0.9765625,3.125t0.80078125,3.203125q0.15625,0.3125,0.234375,0.556640625t0.078125,0.478515625q0,0.3125-0.17578125,0.517578125t-0.458984375,0.302734375t-0.5859375,0.13671875t-0.537109375,0.0390625q-0.83984375,0-1.259765625-0.29296875t-0.60546875-0.80078125t-0.224609375-1.142578125t-0.15625-1.279296875q-0.234375,0.76171875-0.615234375,1.484375t-0.8984375,1.298828125t-1.220703125,0.91796875t-1.58203125,0.341796875q-1.2890625,0-2.16796875-0.7421875t-1.416015625-1.826171875t-0.78125-2.314453125t-0.244140625-2.28515625z M55.221484375,37.44140625q0,0.72265625,0.09765625,1.5234375t0.322265625,1.58203125t0.576171875,1.474609375t0.87890625,1.220703125q0.95703125-1.03515625,1.416015625-2.51953125t0.8203125-2.861328125t0.8203125-2.36328125t1.416015625-0.986328125q0.60546875,0,1.015625,0.21484375q-0.1953125-0.48828125-0.64453125-0.947265625t-1.005859375-0.83984375t-1.15234375-0.625t-1.123046875-0.244140625q-0.15625,0-0.361328125,0.048828125t-0.322265625,0.009765625q-0.80078125,0.234375-1.318359375,0.810546875t-0.83984375,1.357421875t-0.458984375,1.6015625t-0.13671875,1.54296875z M69.3751953125,32.24609375q0-0.80078125,0.283203125-1.34765625t1.201171875-0.546875q0.3515625,0,0.87890625,0.107421875t0.60546875,0.537109375q0.1953125,1.15234375,0.21484375,2.5t0.13671875,2.5390625q0.44921875-0.87890625,1.15234375-1.89453125t1.6015625-1.875t1.953125-1.42578125t2.1484375-0.56640625q0.078125,0,0.29296875,0.05859375t0.400390625,0.166015625t0.224609375,0.244140625t-0.21484375,0.25390625q-0.078125,0.234375-0.33203125,0.283203125t-0.44921875,0.048828125q-0.1171875,0-0.37109375-0.09765625q-1.4453125,0.76171875-2.4609375,2.0703125t-1.66015625,2.900390625t-0.9375,3.359375t-0.29296875,3.447265625q0,0.83984375-0.380859375,1.015625t-1.220703125,0.17578125q-0.44921875,0-0.947265625-0.09765625t-0.693359375-0.625q-0.3515625-1.11328125-0.576171875-2.55859375t-0.341796875-2.978515625t-0.166015625-3.017578125t-0.048828125-2.67578125z M83.25546875,37.71484375q0-1.328125,0.361328125-2.55859375t1.083984375-2.197265625t1.806640625-1.54296875t2.509765625-0.576171875q0.87890625,0,1.943359375,0.263671875t2.001953125,0.78125t1.5625,1.318359375t0.625,1.8359375q0,0.48828125-0.166015625,0.7421875t-0.673828125,0.25390625l-0.21484375-0.0390625q0.56640625,1.5234375,0.9765625,3.125t0.80078125,3.203125q0.15625,0.3125,0.234375,0.556640625t0.078125,0.478515625q0,0.3125-0.17578125,0.517578125t-0.458984375,0.302734375t-0.5859375,0.13671875t-0.537109375,0.0390625q-0.83984375,0-1.259765625-0.29296875t-0.60546875-0.80078125t-0.224609375-1.142578125t-0.15625-1.279296875q-0.234375,0.76171875-0.615234375,1.484375t-0.8984375,1.298828125t-1.220703125,0.91796875t-1.58203125,0.341796875q-1.2890625,0-2.16796875-0.7421875t-1.416015625-1.826171875t-0.78125-2.314453125t-0.244140625-2.28515625z M86.02890625,37.44140625q0,0.72265625,0.09765625,1.5234375t0.322265625,1.58203125t0.576171875,1.474609375t0.87890625,1.220703125q0.95703125-1.03515625,1.416015625-2.51953125t0.8203125-2.861328125t0.8203125-2.36328125t1.416015625-0.986328125q0.60546875,0,1.015625,0.21484375q-0.1953125-0.48828125-0.64453125-0.947265625t-1.005859375-0.83984375t-1.15234375-0.625t-1.123046875-0.244140625q-0.15625,0-0.361328125,0.048828125t-0.322265625,0.009765625q-0.80078125,0.234375-1.318359375,0.810546875t-0.83984375,1.357421875t-0.458984375,1.6015625t-0.13671875,1.54296875z M99.3818359375,25.3125q0-0.2734375,0.5859375-0.46875t1.328125-0.322265625t1.435546875-0.185546875t0.947265625-0.09765625q0-0.52734375,0.0390625-1.064453125t0.21484375-0.95703125t0.556640625-0.673828125t1.064453125-0.25390625q0.56640625,0,0.859375,0.13671875t0.625,0.56640625q0.078125,0.234375,0.078125,0.44921875l0,0.654296875t-0.0390625,0.673828125q0.72265625-0.078125,1.435546875-0.185546875t1.435546875-0.107421875q0.52734375,0,0.72265625,0.01953125t0.390625,0.46875q0.15625,0.44921875-0.380859375,0.68359375t-1.2890625,0.3515625t-1.494140625,0.17578125t-0.8984375,0.05859375q-0.234375,3.359375-0.478515625,6.66015625t-0.244140625,6.69921875q0,1.5234375,0.09765625,3.14453125t0.546875,3.06640625q0.1171875,0.44921875,0.390625,0.83984375t0.2734375,0.83984375q0,0.2734375-0.21484375,0.4296875t-0.517578125,0.263671875t-0.60546875,0.126953125t-0.498046875,0.01953125q-1.23046875,0-1.875-0.91796875t-0.927734375-2.197265625t-0.302734375-2.626953125t-0.01953125-2.1875q0-1.71875,0.068359375-3.515625t0.166015625-3.5546875t0.2734375-3.4375t0.41015625-3.125q-0.68359375,0.078125-1.337890625,0.17578125t-1.337890625,0.09765625q-0.15625,0-0.419921875-0.01953125t-0.498046875-0.09765625t-0.400390625-0.21484375t-0.166015625-0.390625z M114.316796875,39.84375l0-1.8359375q0-0.99609375,0.048828125-2.822265625t0.126953125-4.00390625t0.21484375-4.541015625t0.3125-4.462890625t0.419921875-3.759765625t0.556640625-2.4609375q0.1953125-0.44921875,0.64453125-0.56640625t0.87890625-0.1171875q0.68359375,0,1.201171875,0.302734375t0.517578125,1.103515625l-0.3515625,0.390625q-0.68359375,4.51171875-0.87890625,9.0625t-0.2734375,9.1015625q0.48828125-0.76171875,1.103515625-1.494140625t1.3671875-1.298828125t1.62109375-0.908203125t1.904296875-0.341796875q1.328125,0,2.197265625,0.80078125t1.435546875,2.080078125t0.83984375,2.861328125t0.419921875,3.1640625t0.205078125,2.998046875t0.17578125,2.353515625q-0.37109375,0.5078125-1.09375,0.5078125l-0.05859375,0q-0.3125,0-0.68359375-0.078125t-0.48828125-0.390625l0.0390625,0.0390625q-0.2734375-0.60546875-0.37109375-1.748046875t-0.15625-2.51953125t-0.205078125-2.822265625t-0.439453125-2.6171875t-0.859375-1.93359375t-1.5234375-0.80078125l-0.1171875,0q-1.15234375,0-1.93359375,0.703125q-0.8203125,0.7421875-1.328125,1.953125t-0.78125,2.6953125t-0.419921875,2.861328125t-0.224609375,2.5t-0.1953125,1.650390625q-0.1171875,0.44921875-0.693359375,0.595703125t-0.986328125,0.146484375q-0.95703125,0-1.5625-0.546875q-0.44921875-1.07421875-0.52734375-2.67578125t-0.078125-3.125z"/><path fill="#" d=""/></svg>
